Simulation
nRows=42
nColumns=15
endheader
time  TH_x TH_y TH_z SC_y  SC_z  SC_x  AC_y  AC_z  AC_x  GH_y  GH_z  GH_yy  EL_x  PS_y
0.0  0.000000  0.000000  0.000000  -21.481837363305974  5.049547332879065  0.3347068766571287  42.60149365294091  5.577109550453769  -7.38084599456483  86.57025735459284  8.398024285382093  -34.75764173471326  20.797087795689936  120.000000
0.04802000000000001  0.000000  0.000000  0.000000  -21.493282362549163  4.891068862796553  -0.43896085863024376  43.505043307095896  5.6393927588783646  -6.167598417147112  69.43366366519278  7.553499669537175  -19.516384394999793  20.252492972100256  120.000000
0.09604000000000001  0.000000  0.000000  0.000000  -21.462892353587858  4.7503201827095864  -1.196386209648818  44.39900618146179  5.705183679313152  -4.995612791389628  50.769007986188754  7.580782957241528  -2.8443128838200264  19.70074810153501  120.000000
0.14406000000000002  0.000000  0.000000  0.000000  -21.397471922227638  4.634007176568912  -1.9810607418738522  45.20745617432037  5.783493233450669  -3.89478785363359  34.24865945656543  8.411719234939685  11.470894760168438  19.104790531279523  120.000000
0.19208000000000003  0.000000  0.000000  0.000000  -21.330339619527255  4.5458064031799585  -2.7926200018889697  45.89014942111419  5.880328378259288  -2.861927445379295  21.537740748120182  9.837628032041748  21.6762508454558  18.452727731692605  120.000000
0.24010000000000004  0.000000  0.000000  0.000000  -21.2895682552021  4.495680964729314  -3.6099617334572387  46.469462775272284  6.017690671113582  -1.8924116185806263  12.271954475695026  11.670975684045372  28.11298779687008  17.750281472244133  120.000000
0.28812000000000004  0.000000  0.000000  0.000000  -21.33522620214695  4.498813239750932  -4.3945107618447246  46.96441670936383  6.216399166439828  -0.9641661011645336  5.5305085546355945  13.784177052242116  31.735403534634504  17.01265414022454  120.000000
0.33614000000000005  0.000000  0.000000  0.000000  -21.538745163698444  4.5811213556421855  -5.105863027130164  47.40071922421623  6.501214227739732  -0.06526976078268544  0.5422770277996645  16.09736432577758  33.39347216483954  16.25537126948741  120.000000
0.38416000000000006  0.000000  0.000000  0.000000  -21.9681536638932  4.779958701385996  -5.706478000123121  47.79283506435218  6.888838975960823  0.8100453029866026  -3.249499309075064  18.556374761977544  33.7480472483216  15.495399195098468  120.000000
0.43218000000000006  0.000000  0.000000  0.000000  -22.66640923980727  5.121839684951783  -6.160510874625406  48.14414698307544  7.385662220018979  1.663934558289776  -6.220949946638106  21.1235058101342  33.287175103414555  14.747349579549518  120.000000
0.48020000000000007  0.000000  0.000000  0.000000  -23.642957167327424  5.617616026201713  -6.4513418473387665  48.45456466186182  7.986674664465044  2.498929655456511  -8.600663950462405  23.76636817524594  32.34482817644052  14.027687457595958  120.000000
0.5282200000000001  0.000000  0.000000  0.000000  -24.875311121776743  6.246311789657647  -6.580859653817871  48.72029233347045  8.672076333258731  3.3116572297594136  -10.534883152779871  26.4493645464913  31.15618198134189  13.348534448113142  120.000000
0.5762400000000001  0.000000  0.000000  0.000000  -26.31541989840397  6.974361300179734  -6.554114937027122  48.94026336015128  9.407998586133486  4.092325989181625  -12.095393545035936  29.134194374442252  29.85797372579763  12.720050510444743  120.000000
0.62426  0.000000  0.000000  0.000000  -27.894314007188342  7.7627905211355515  -6.376436044206532  49.114267829990155  10.161141906125668  4.830427487771917  -13.314657325469009  31.788293504108942  28.5211638383015  12.148569706534099  120.000000
0.6722800000000001  0.000000  0.000000  0.000000  -29.537176436641953  8.576678497861739  -6.053153381202223  49.24651826126806  10.902983696621739  5.5137941461741065  -14.202651049409308  34.38599257815067  27.167332417696212  11.636683031859453  120.000000
0.7203000000000002  0.000000  0.000000  0.000000  -31.176077447775747  9.382798493155667  -5.586067727826354  49.34177927612928  11.61394056067385  6.133056859587386  -14.77557824193891  36.91025034392196  25.797703439843772  11.178731959892195  120.000000
0.7683200000000001  0.000000  0.000000  0.000000  -32.76020768004022  10.154558630855202  -4.975920252447108  49.41233562975653  12.288164795987917  6.6778392931185016  -15.068932760029217  39.346639209386  24.40971783722585  10.7587333673302  120.000000
0.8163400000000001  0.000000  0.000000  0.000000  -34.25950812633403  10.868041908792291  -4.220490318532461  49.476597119969945  12.937114422059272  7.149119260965825  -15.138922361647051  41.67726913163517  23.00721164122967  10.35277613098265  120.000000
0.8643600000000001  0.000000  0.000000  0.000000  -35.655814657847316  11.504856536365363  -3.316845434968904  49.55498858285473  13.586763823517975  7.562856601965009  -15.052358421680603  43.8768394785922  21.603013508576655  9.937367785420745  120.000000
0.9123800000000002  0.000000  0.000000  0.000000  -36.929881964850736  12.05532368773081  -2.263095496335168  49.66246582460408  14.264988705700652  7.9406611380566465  -14.881335888769918  45.918821305260465  20.22307613415592  9.495291383379357  120.000000
0.9604000000000001  0.000000  0.000000  0.000000  -38.06583304870665  12.519461982852974  -1.0649762748485512  49.8004021341121  14.984670628737927  8.3076314920746  -14.694543973064146  47.78359300198698  18.90762421568321  9.024061636835485  120.000000
1.00842  0.000000  0.000000  0.000000  -39.05124563244862  12.906453490930277  0.25736223686498705  49.95733523007868  15.733347565406278  8.685509979876604  -14.550813026278103  49.462378461789285  17.707220963830938  8.537285892820387  120.000000
1.0564400000000003  0.000000  0.000000  0.000000  -39.883107275854  13.23144547929087  1.6683345143333463  50.11418155143071  16.476064912823198  9.092619730084465  -14.490771126114023  50.95926398608267  16.672832445126527  8.061227065677363  120.000000
1.1044600000000002  0.000000  0.000000  0.000000  -40.56909609123667  13.513001575304202  3.1188171040079453  50.25717222268975  17.1682574279814  9.5344993129317  -14.535583000130169  52.28789678967369  15.84636388592827  7.62578119088773  120.000000
1.1524800000000002  0.000000  0.000000  0.000000  -41.12883128644509  13.76337106928193  4.558957253369473  50.38205827394782  17.770231464838485  10.002900804867409  -14.689582100857775  53.466661477996745  15.255094442906207  7.25767233560645  120.000000
1.2005000000000001  0.000000  0.000000  0.000000  -41.58783530227512  13.989298688943004  5.942217800604568  50.49525072063066  18.25293679406879  10.477680155540344  -14.942329910295193  54.513320071506826  14.906653470043029  6.976107035131865  120.000000
1.24852  0.000000  0.000000  0.000000  -41.96937216350066  14.195387642936332  7.227339911346033  50.60690703268203  18.59910393767402  10.931267727698069  -15.274085554779639  55.43919983573398  14.790616032984415  6.793133142963552  120.000000
1.2965400000000002  0.000000  0.000000  0.000000  -42.29035863976541  14.38549608627285  8.378397448312198  50.7247572567457  18.803547406674195  11.332699787882786  -15.66057158984793  56.24874062341403  14.880697748986748  6.713791631468073  120.000000
1.3445600000000002  0.000000  0.000000  0.000000  -42.56022715583891  14.560943523388497  9.367743359280272  50.84991273162298  18.87365718693077  11.653093586114501  -16.07580754634805  56.942932822053606  15.136688342765538  6.734912054504196  120.000000
1.3925800000000002  0.000000  0.000000  0.000000  -42.782600617154046  14.7178655596246  10.179469493522923  50.97689636526478  18.82901994820925  11.8710530737964  -16.49272222544271  57.52481434540086  15.504716661863045  6.840536714850083  120.000000
1.4406000000000003  0.000000  0.000000  0.000000  -42.95760602230348  14.84696006268449  10.80977167675943  51.09691928521538  18.698521372867297  11.974757489780933  -16.884376064578504  58.00457606392413  15.91944276092547  6.999078221869958  120.000000
1.4886200000000003  0.000000  0.000000  0.000000  -43.084545796102574  14.934078060806241  11.265397351837121  51.20038143735705  18.51578539079976  11.962198280322314  -17.22419585775593  58.40044677922899  16.309624369195422  7.1670269107312246  120.000000
1.5366400000000002  0.000000  0.000000  0.000000  -43.162906046750344  14.964991259049507  11.556552906453206  51.279869570727094  18.312816391952836  11.836858316713105  -17.486059729589233  58.73600047913315  16.605718687122693  7.299041577407709  120.000000
1.5846600000000002  0.000000  0.000000  0.000000  -43.191732281736684  14.928024041401372  11.69186133792289  51.33011687574937  18.11408728130518  11.606208689512021  -17.64403769503155  59.034705685114105  16.748777025615063  7.360640727557664  120.000000
1.6326800000000001  0.000000  0.000000  0.000000  -43.16787976532714  14.818231835907934  11.672108708768516  51.34933679320995  17.932225947476855  11.276849049098885  -17.674497316247614  59.31245910965581  16.69771224647706  7.338856669088816  120.000000
1.6807000000000003  0.000000  0.000000  0.000000  -43.08442018369647  14.636188314908754  11.489468449283974  51.33871070750851  17.76671198509799  10.85524861636542  -17.559433214818124  59.57263297172734  16.433056572388757  7.245155330161439  120.000000
1.7287200000000003  0.000000  0.000000  0.000000  -42.92973518177573  14.386427124980601  11.128743833794731  51.304316671078155  17.606240107040545  10.34858249718283  -17.29049382080807  59.801143956971714  15.954801729438612  7.109156040117411  120.000000
1.7767400000000002  0.000000  0.000000  0.000000  -42.68757329455186  14.073977139512436  10.572076183077908  51.25800373230104  17.43227614666221  9.76775156055995  -16.873052867793163  59.96455465314106  15.278276871131848  6.9698467480179565  120.000000
1.8247600000000004  0.000000  0.000000  0.000000  -42.33930363225116  13.701412344150732  9.804182961307834  51.21693640065152  17.223427554140486  9.13067405519425  -16.328125279669155  60.00898869250042  14.428890629473576  6.869981937148083  120.000000
1.8727800000000003  0.000000  0.000000  0.000000  -41.86594279201259  13.267242285825851  8.81728810080534  51.20125929483239  16.95942219290419  8.462654786736335  -15.691961394704803  59.86094596694639  13.439557410116239  6.853514460014035  120.000000
1.9208000000000003  0.000000  0.000000  0.000000  -41.25069933567643  12.764555163689172  7.6146628628255  51.228184960859885  16.625001983775416  7.795310809561606  -15.011742055250238  59.43179997501087  12.35057097908886  6.963384941415747  120.000000
1.9688200000000002  0.000000  0.000000  0.000000  -40.480124780121116  12.18329021279634  6.209958534740735  51.30565326354781  16.213659574804872  7.16173616690652  -14.338443888126896  58.62669610816351  11.214889893617048  7.235739150025156  120.000000
